<?xml version="1.0" ?><svg style="enable-background:new 0 0 512 512;" version="1.1" viewBox="0 0 512 512" xml:space="preserve" xmlns="http://www.w3.org/2000/svg" xmlns:xlink="http://www.w3.org/1999/xlink"><g id="outerdark"><path d="M256.5,20C126.4,20,21,125.4,21,255.5S126.4,491,256.5,491S492,385.6,492,255.5S386.6,20,256.5,20z    M256,460.5c-112.9,0-204.5-91.6-204.5-204.5S143.1,51.5,256,51.5S460.5,143.1,460.5,256S368.9,460.5,256,460.5z" style="fill:#35465C;"/></g><g id="outerlight"><path d="M423.1,89l-22.4,22.4c37,37,59.8,88.1,59.8,144.6c0,112.9-91.6,204.5-204.5,204.5   c-56.4,0-107.6-22.9-144.6-59.8L90,422.1c92,92,241.1,92,333,0S515,181,423.1,89z" style="opacity:0.2;fill:#FFFFFF;"/></g><g id="innerdark"><circle cx="256" cy="256" r="180" style="fill:#35465C;"/></g><g id="Tumblr"><path d="M305.7,318c-3.9,1.8-11.2,3.4-16.8,3.6c-16.6,0.4-19.8-11.7-20-20.5v-64.6h41.7v-31.4h-41.6v-52.9   c0,0-29.9,0-30.4,0c-0.5,0-1.4,0.4-1.5,1.6c-1.8,16.2-9.4,44.6-40.9,56v26.8h21v67.9c0,23.2,17.1,56.2,62.4,55.5   c15.3-0.3,32.2-6.7,36-12.2L305.7,318z" style="fill:#E6E7E8;"/></g><g id="innerlight"><path d="M128.1,382.6c-70.3-70.3-70.3-184.3,0-254.6s184.3-70.3,254.6,0" style="opacity:0.2;fill:#FFFFFF;"/><g/><g/><g/><g/><g/><g/></g></svg>